<svg xmlns="http://www.w3.org/2000/svg" viewBox="0 0 102.4 102.6"><path fill="#fff" d="M51 0A51 51 0 0 0 0 47.1l27.5 11.4q3.7-2.4 8.1-2.5h.9l12.2-17.7V38A19.3 19.3 0 1 1 68 57.4h-.4L50.2 70v.7a14.5 14.5 0 0 1-28.8 2.8l-19.6-8A51.2 51.2 0 1 0 51.1 0Zm16.4 25.2a13 13 0 0 0-8.5 3.7 12.8 12.8 0 0 0 2 19.9 13 13 0 0 0 20-10.7 13 13 0 0 0-13.5-13m1.1 3.2a10 10 0 0 1 6.4 2.8A9.7 9.7 0 1 1 58.3 38h.1a9.7 9.7 0 0 1 10.1-9.6M35 59.6q-1.6 0-3.1.7l6.5 2.7a8 8 0 0 1 4.3 10.5 8 8 0 0 1-10.5 4.3l-6.3-2.6a11 11 0 0 0 20.5-6.9A11 11 0 0 0 35 59.6"/></svg>
